<?xml version="1.0" encoding="utf-8"?>
<!-- Generator: Adobe Illustrator 23.0.6, SVG Export Plug-In . SVG Version: 6.00 Build 0)  -->
<svg version="1.1" id="Capa_1" xmlns="http://www.w3.org/2000/svg" xmlns:xlink="http://www.w3.org/1999/xlink" x="0px" y="0px"
	 viewBox="0 0 400 176" style="enable-background:new 0 0 400 176;" xml:space="preserve">
<style type="text/css">
	.st0{fill:#FFFFFF;}
</style>
<g>
	<g>
		<path class="st0" d="M118.5,133.9c0,0,1.1,0.6,1.5,0.7c0.5,0.1,1.4,0.5,1.4,0.5l-0.3,0.2c0,0-0.9,0.1-1.6,0.1s-1.6-0.2-1.6-0.2
			l-1.2-0.3l0.2-0.7l0.3-0.7l-0.7-0.2h-1.1H115H49V39.1h-3.7v97.8l0,0h97.8v-3.7h-25.3L118.5,133.9z"/>
		<path class="st0" d="M117.9,125.7c-0.2,0.4,0,1.6-0.3,1.7s0.4,1.2,0.4,1.2l-0.2,0.7h25.4v-3.7L117.9,125.7L117.9,125.7z"/>
		<path class="st0" d="M53.6,58.3c0.1-0.2,0.5-0.6,0.8-0.7c0.2-0.1,0.4-0.6,0.7-0.8c0.3-0.1,0.5-0.5,0.5-0.5s-0.4-0.1-0.7,0
			s-0.5,0.1-0.5,0.1s-0.2-0.3-0.2-0.4c0-0.2-0.6-0.1-0.6-0.1l-0.2-0.3c0,0,0.1-0.4,0.4-0.6c0.4-0.2,0-0.5-0.2-0.5
			c-0.2,0.1-0.7,0.3-0.6,0.2c0.1,0,0-0.1,0-0.1v4.1l0.2-0.1C53.2,58.7,53.6,58.5,53.6,58.3z"/>
		<path class="st0" d="M53.8,51.5c0.2-0.1,0.6-0.1,0.6-0.1l0.5-0.2c0,0,0.2-0.2,0.7,0v-0.5c0,0,0.5-0.6,0.7-0.8S56,49.5,56,49.5
			l-0.8,0.3l-0.8,0.1l-0.5-0.2c0,0,0-0.3,0-0.5s0.5-0.5,0.5-0.5s0-0.3,0-0.5s0.3-0.5,0.3-0.5l0.4,0.1c0,0,0,0,0.2-0.4
			s0.4-0.2,0.4-0.2l0.4,0.4l0.2,0.3h0.3v-1.5l0,0l0,0v-1c-0.2-0.1-0.3-0.1-0.3-0.1s-0.1-0.4,0.1-0.5c0.1-0.1,0.2-0.1,0.2-0.2V39H53
			v13.4c0-0.1,0.1-0.1,0.1-0.2C53.4,52,53.6,51.5,53.8,51.5z"/>
		<path class="st0" d="M112.8,129.3L112.8,129.3c-0.1-0.3-0.4-1-0.4-1s0.3-0.9,0-1.2c-0.3-0.3,0.1-1.3,0.1-1.3s0-0.1,0-0.2H56.7
			V56.8c-0.1,0.1-0.2,0.1-0.2,0.2c-0.2,0.1-0.7,0.2-1.2,0.4c-0.4,0.2-0.8,0.7-1.1,1.1c-0.4,0.4-0.4,0.4-0.9,0.5
			c-0.1,0-0.1,0.1-0.2,0.1v70.2L112.8,129.3L112.8,129.3z"/>
		<path class="st0" d="M111.5,121.7c-0.2-0.4-0.3-0.8-0.3-1c0-0.3,0-1.1,0.3-1.5c0.1-0.1,0.1-0.7,0.1-1.3H64.3v-62
			c-0.1-0.1-0.1-0.1-0.1-0.1s-1.3-0.6-1.6-0.8c-0.2-0.2-0.8-0.4-1.1-0.5c-0.3-0.2-0.4-0.2-0.8,0.1c-0.1,0-0.1,0.1-0.2,0.1v67l0,0
			H111.5z"/>
		<path class="st0" d="M61,42.4c-0.2,0,0.2-0.3,0.5-0.4c0.3-0.2,0.4,0.2,0.4,0.2s0.4-0.2,0.6-0.3c0.2-0.1,0.2,0.2,0.2,0.2
			c0.1,0,0.2,0.1,0.3,0.1c0.2,0.1,0.3,0.2,0.3,0.3s0,0.2,0,0.3s0.1,0.2,0.2,0.2c0.1,0.1,0.3,0.2,0.4,0.3c0.1,0.1,0.1,0.1,0.2,0.1
			v-4.5h-3.7v3.6C60.7,42.6,61.2,42.4,61,42.4z"/>
		<path class="st0" d="M143.2,118h-22l0.1,0.1c0.2,0.3,0.6,0.4,0.7,0.8s0.1,0.6-0.2,1.1c-0.4,0.4-1.6,0.7-2,0.8
			c-0.3,0-0.5,0.6-0.6,0.9h24V118z"/>
		<path class="st0" d="M69,45.8L69,45.8c0,0,0.3,0.2,0.4,0.2c0,0,0,0,0.1,0.1h-0.1c0.1,0.1,0.1,0.2,0.2,0.3s0.2,0.1,0.4,0.1
			c0-0.1,0-0.2,0.1-0.2c0-0.1,0.1-0.2,0.1-0.2c0-0.1,0.1-0.3,0.1-0.4c0-0.1,0.1-0.2,0.1-0.2c0-0.1,0-0.1,0.1-0.1
			c0.3,0,0.4,0.3,0.7,0.1c0.1,0,0.1-0.1,0.3-0.1c0.1,0,0.2,0,0.3-0.1v-6.1h-3.7v6.1c0.1,0.1,0.3,0.2,0.4,0.3
			C68.7,45.6,68.9,45.7,69,45.8z"/>
		<path class="st0" d="M143.2,110.4H128c-0.3,0.2-0.5,0.3-0.6,0.4c-0.2,0.3-0.2,1-0.2,1.3s0.1,1,0.1,1s-0.1,0.5-0.2,0.9h16.2v-3.6
			H143.2z"/>
		<path class="st0" d="M71.1,46.6c0.2,0,0.4,0,0.6-0.2c0,0,0.1,0,0.2-0.1v-0.5c-0.1,0.1-0.2,0.2-0.3,0.2c-0.1,0-0.2,0-0.3,0.1
			C71.1,46.2,70.9,46.5,71.1,46.6z"/>
		<path class="st0" d="M111,114.1c-0.1-0.2-0.1-0.5-0.1-0.7c0-0.5,0-1,0.2-1.7c0.1-0.3,0.1-0.8,0-1.3H71.8V75.5
			c-0.1-0.3-0.4-0.5-0.4-0.5L71,74.7c0,0-0.6-0.4-0.7-0.5c-0.1-0.2-0.6-0.6-0.7-0.8c-0.1-0.2-0.1-0.8-0.1-0.8S69.1,72.2,69,72
			s-0.5-0.6-0.4-0.8c0-0.3,0-0.7,0-0.7s0-0.8-0.1-1c0-0.2,0.1-0.5,0.1-0.8c0.1-0.3,0.3-1.9,0.6-2.1c0.3-0.3,0.4-0.6,0.4-0.6l0.3-0.5
			c0,0-0.1-0.8-0.2-0.9c-0.2-0.2-0.7-1-1-1.2c-0.2-0.1-0.4-1-0.6-1.4v52.2l0,0L111,114.1L111,114.1z"/>
		<path class="st0" d="M75.8,79.9l1.4,2.6v0.9L75.7,82v24.6l0,0h35c-0.1-0.6-1-0.9-1.5-1.1s-1.6-0.5-2-0.9s-1.3-1.3-1.4-1.6l0,0
			H79.5V82.3l-0.9-0.4l-0.5-0.3l0.1-0.4v-0.5c0,0-0.5-0.4-0.6-0.6s-0.8-0.8-0.8-0.8s-0.5-0.4-0.6-0.6S76,78.3,76,78.1
			c0,0,0-0.1-0.1-0.1v1.5C75.8,79.7,75.9,79.8,75.8,79.9L75.8,79.9z"/>
		<path class="st0" d="M76.4,46.3c0,0.1,0,0.1,0,0.2c0.1,0.2,0.4,0.2,0.6,0.3c0.1,0,0.2,0,0.2,0c0.1,0,0.1-0.1,0.2,0l0.1,0.1
			c0.1,0,0.1,0.1,0.2,0.1c0.1,0.1,0.2,0.1,0.2,0.2c0,0,0,0,0-0.1l0.1,0.1h-0.1c0.1,0.2,0.2,0.3,0.5,0.2c0.1,0,0.1-0.1,0.2-0.1
			c0.1-0.1,0.1,0,0.1,0.1c0.1,0.1,0.2,0.2,0.1,0.3c0,0.1-0.2,0.1-0.2,0.1c-0.1,0.1-0.1,0.2-0.2,0.2c-0.1,0.1-0.2,0.1-0.4,0.1
			c0,0.1,0,0.2,0.1,0.3c0,0.1,0.1,0.1,0.1,0.1s0,0.1,0.1,0.1c0.1,0.1,0.1,0.1,0.2,0.1s0.1,0.1,0.2,0.1c0.1,0.1,0.4,0,0.5,0h0.1v-9.5
			h-3.7v7c0,0,0.1,0,0.2,0C76.1,46.1,76.3,46.2,76.4,46.3z"/>
		<path class="st0" d="M143.2,102.9h-9.5l0,0c0,0,0,1.7-0.3,2.4c-0.1,0.3-0.3,0.8-0.5,1.3h10.2v-3.7H143.2z"/>
		<path class="st0" d="M143.2,98.9v-3.7h-14.8l1.4,0.5l1.9,0.2c0,0,1.1,0.3,1.4,0.3c0.4,0.1,0.8,0.7,1,1.1c0.2,0.3,1.1,0.2,1.4,0.4
			c0.3,0.2,0.7,0.9,0.7,0.9s0,0.1-0.1,0.2L143.2,98.9L143.2,98.9z"/>
		<path class="st0" d="M87,98.9h15.8c-0.3-0.3-0.5-0.5-0.6-0.7c-0.2-0.4-0.4-1-0.6-1.2s0-1.1,0-1.1v-0.7H87v-9.4h-0.6l-1.7-0.3
			c0,0-0.5-1.3-0.8-1.6c-0.2-0.1-0.5-0.3-0.6-0.3v11.6v3.7H87L87,98.9z"/>
		<path class="st0" d="M86.3,58.1c0.2,0,0.3,0,0.5,0.1c0.1,0,0.1,0.1,0.2,0.1v-4.8l-0.1,0.1c-0.4,0.3-0.7,0.6-0.9,1c0,0,0,0,0-0.1
			c-0.1,0-0.2,0.2-0.2,0.3c-0.1,0.2-0.4,0.4-0.5,0.6c-0.1,0.2,0,0.4-0.2,0.6C85,56.2,85,56.3,85,56.5c0,0.1,0.1,0.2,0.2,0.2
			s0.2,0,0.2-0.1c0.1,0,0.1-0.1,0.2-0.1l0,0c0.1,0,0.1,0.2,0.1,0.3c0.1,0.1,0.2,0.1,0.2,0.2c0,0,0,0.3,0.1,0.3c0,0,0,0.1-0.1,0.1
			c0.2,0.1,0.1,0.3,0,0.5C86,58,86.1,58.1,86.3,58.1z"/>
		<path class="st0" d="M83.5,48.5L83.5,48.5c0.1,0,0.1,0,0.2,0c0.3,0.1,0.5,0.2,0.8,0.3c0.1,0,0.2,0.1,0.3,0.1
			C85,49,85.2,49,85.4,49c0.2-0.1,0.3-0.3,0.5-0.4c0.1-0.1,0.3-0.3,0.5-0.3c0,0,0,0.1-0.1,0.2c-0.1,0.1-0.1,0.3-0.2,0.4l0,0
			c0,0,0,0.1,0,0.2c0.2-0.1,0.3,0.2,0.2,0.3c0,0.1-0.3,0.3-0.2,0.5c-0.1,0.1,0,0.2,0.1,0.2c0.2,0,0.3-0.2,0.4-0.4
			c0.1-0.1,0.2-0.3,0.3-0.5c0-0.1,0-0.1,0.1-0.1v-9.8h-3.7v9.5l0,0C83.4,48.5,83.5,48.5,83.5,48.5z"/>
		<path class="st0" d="M84.5,81.8l0.4,0.8l1-1c0,0,0.4-0.9,0.6-1.2c0.1-0.2,0.3-0.5,0.6-0.6V75l-0.4,0.1c0,0-0.3,0.2-0.4,0.3
			c-0.1,0.1,0,0.1-0.2,0.2s-0.3,0.2-0.3,0.2l-0.5-0.1l-0.8-0.1l-0.3,0.2c0,0,0-0.1-0.8,0.4v5.4c0.2,0.2,0.4,0.4,0.6,0.4
			C84.2,82,84.5,81.8,84.5,81.8z"/>
		<path class="st0" d="M115,88.3l1,0.2l1.1,0.6l1.1,0.7l1.2,0.1h0.7l1.6,0.5c0,0,1.2,0.5,1.6,0.9c0,0,0,0,0,0.1h20v-3.7h-28.5
			c0.1,0,0.3,0.1,0.4,0.1C116,88.2,115,88.3,115,88.3z"/>
		<path class="st0" d="M102.4,91.3c0.2-0.8-1.8-1-1.9-1.2c0,0-0.6-0.1-0.8-0.3c-0.2-0.2-1.1-0.9-1.1-0.9c-0.5-0.1-2,0.2-2,0.2
			l-0.3,0.5c0,0-0.9-0.1-1.2-0.1c-0.3-0.1-0.7-0.4-0.7-0.4h-1l-0.5-0.3l-1-0.1l-0.7-0.2L91,87.8l-0.1-0.1l0,0v3.7L102.4,91.3
			L102.4,91.3z"/>
		<path class="st0" d="M108.5,88c0.3,0,0.5-0.3,0.5-0.3s0.1,0,0.1-0.1H108l0.1,0.2C108,87.8,108.3,88,108.5,88z"/>
		<path class="st0" d="M99.4,87.9l0.5,0.2l0,0l0.6,0.4h0.6c0,0,1-0.5,1.8-0.9h-4L99.4,87.9z"/>
		<path class="st0" d="M92,83.9c0,0,0.4,0.1,0.7,0.1c0.3,0,0.1,0.4,0.1,0.4l0.1,0.9c0,0,0,0.4,0,0.7c0.1,0.3-0.2,1.1-0.2,1.1
			s0.2,0.1,0.4,0.4c0.2,0.3,0.4,0.3,0.9,0.5s0.7,0.4,0.7,0.4s0.9,0,1.1,0c0.3,0,0.7-0.5,0.7-0.5l0.9-0.1h-2.9V68.1
			c-0.1,0.1-0.2,0.1-0.2,0.1c-0.2,0-0.4,0.3-0.5,0.3s-0.2,0.2-0.2,0.3c-0.1,0.1-0.3,0.2-0.4,0.2s-0.3,0-0.4,0.1s-0.2,0.3-0.2,0.4
			s-0.1,0.4-0.1,0.4c0,0.1,0.1,0.3,0.2,0.5c0,0.2,0.1,0.3,0.1,0.3s-0.2,0.7-0.3,0.7c-0.1,0-0.4,0.3-0.4,0.3s-0.5,0.6-0.7,0.7
			c-0.1,0-0.4,0.3-0.6,0.6v10.6l0.2-0.1L92,83.9z"/>
		<path class="st0" d="M91,62.2c0,0.1,0,0.1,0.2,0.1s0.3-0.1,0.4-0.1c0.2-0.2,0.3-0.4,0.5-0.5c0.2-0.2,0.6-0.4,0.4-0.7
			c-0.1-0.1-0.2-0.2-0.2-0.3s0-0.2-0.1-0.3c0-0.4-0.2-0.4-0.3-0.6c0-0.1,0-0.1,0.1-0.2c0.1-0.1,0.2-0.2,0.4-0.3
			c0.1,0,0.2-0.1,0.2-0.1s0,0,0-0.1c0.1-0.1,0.2-0.2,0.2-0.2c0.1-0.1,0.2-0.1,0.2-0.2c0.1-0.1,0.1-0.2,0.2-0.3
			c0.2-0.2,0.4-0.6,0.2-0.9c-0.1-0.1-0.2-0.3-0.3-0.4c0-0.1-0.1-0.1-0.1-0.2c0-0.1,0.1-0.2,0.1-0.3c-0.1-0.1-0.3-0.1-0.3-0.1
			c0-0.1,0.2-0.3,0.3-0.3c0-0.1,0-0.2,0.1-0.3l0.1-0.1c0.1-0.1,0-0.2,0.1-0.2c0-0.1,0.1-0.1,0.1-0.2c0-0.1-0.1-0.1-0.1-0.2
			c-0.2-0.2-0.3-0.3-0.2-0.5c0.1-0.2,0.2-0.4,0.4-0.5c0.1-0.1,0.1-0.1,0.2-0.3c0,0,0-0.1,0.1-0.2c0.1-0.1,0.3-0.1,0.4-0.1
			s0.1,0,0.2,0.1c0,0,0,0.1,0.1,0.1c0,0,0,0,0.1,0V39.1H91v9.8c0,0,0,0,0.1-0.1c0.2-0.2,0.2-0.4,0.3-0.6c0.1-0.1,0.1-0.3,0.2-0.5
			c0-0.1,0.1-0.2,0.2-0.3s0.2-0.1,0.2-0.1c0.1-0.1,0-0.1-0.1-0.2c0-0.1,0-0.1,0.1-0.2c0-0.1,0.1-0.2,0.2-0.2s0.1,0.1,0.2,0.2
			c0.1,0,0.1,0,0.2,0s0.1,0.1,0.2,0.2c0.1,0.1,0.3,0.1,0.4,0.2c0,0.1-0.1,0.3-0.2,0.3c-0.1,0.1-0.1,0.3-0.2,0.4
			c-0.1,0-0.2,0.1-0.2,0.2c0,0,0.1,0.1,0.2,0.1s0.2,0.1,0.3,0.2c0,0.1-0.1,0.2-0.1,0.3c-0.1,0.1-0.1,0.2-0.3,0.3
			c-0.2,0.1-0.1,0.4-0.3,0.5c-0.1,0-0.4,0-0.5-0.1c-0.1,0-0.1,0-0.1-0.1c-0.2-0.1-0.3,0.1-0.4,0.2c0,0-0.1,0-0.2,0v12.2
			c0,0,0.1,0,0.1,0.1C91,62,91,62.2,91,62.2z"/>
		<path class="st0" d="M143.2,83.8v-3.7h-41V60.6c-0.2,0.1-0.3,0.2-0.4,0.3c-0.2,0.1-0.7,0.5-1.2,0.6c-0.6,0.1-1.4,0.1-1.4,0.1
			s-0.4,0.1-0.8,0.2v2.3l0,0c0.3,0.1,0.4,0.3,0.5,0.4s0.2,0.3,0.3,0.4c0.1,0.1,0.6-0.3,0.6-0.3l0.3-0.2l0.1,0.2c0,0,0,0.1-0.2,0.2
			c-0.1,0-0.1,0.2-0.4,0.3c-0.2,0.2-0.4,0.3-0.5,0.4s-0.5,0.1-0.6,0.1h-0.1v18L143.2,83.8z"/>
		<path class="st0" d="M99.3,55.1l0.4-0.1c0,0,0.1,0.2,0,0.5c0,0.3,0,0.7,0.1,0.7c0,0.1,0.1,0.1,0.2,0.1c0.2,0,0.3,0.3,0.5,0.3
			c0.2,0.1,0.3,0.3,0.3,0.4c0,0.2-0.2,0.2-0.2,0.6c-0.1,0.3,0.4,0.3,0.6,0.4c0.2,0.1,0.9,0.1,0.9,0.2c0,0,0.1,0.2,0.1,0.3V39.1h-3.7
			v17.3c0-0.2,0.3-0.7,0.4-0.8C99,55.4,99.3,55.1,99.3,55.1z"/>
		<path class="st0" d="M100.9,60.7c0,0,0.1-0.2,0.1-0.3s0-0.2,0.1-0.3s0.3-0.1,0.5-0.1c0.1,0,0.4-0.1,0.6-0.2v-1.1
			c0,0,0,0.1-0.1,0.1c-0.2,0-0.2,0.4-0.4,0.5c-0.2,0.1-0.7,0.2-0.8,0.4c-0.2,0.2,0.1,0.3,0.1,0.4c0,0.1-0.1,0.1-0.2,0.3
			C100.6,60.6,100.9,60.7,100.9,60.7z"/>
		<polygon class="st0" points="109.8,72.5 109.8,39.1 106.1,39.1 106.1,76.2 143.2,76.2 143.2,72.5 		"/>
		<polygon class="st0" points="143.2,68.6 143.2,64.9 117.4,64.9 117.4,39.1 113.7,39.1 113.7,68.5 		"/>
		<polygon class="st0" points="143.2,61 143.2,57.3 125,57.3 125,39.1 121.3,39.1 121.3,60.9 		"/>
		<polygon class="st0" points="143.2,53.4 143.2,49.7 132.6,49.7 132.6,39.1 128.9,39.1 128.9,53.4 		"/>
		<polygon class="st0" points="143.2,45.8 143.2,42.1 140.2,42.1 140.2,39.1 136.5,39.1 136.5,45.8 		"/>
		<path class="st0" d="M87,53v0.4c0.1-0.1,0.1-0.1,0.1-0.2S87,53.1,87,53z"/>
	</g>
	<g>
		<path class="st0" d="M157.4,133.3V84h8.1v42.4h20.9v6.9H157.4z"/>
		<path class="st0" d="M225.1,133.2l-4.9-13.6h-18.6l-4.8,13.6h-8.4L206.7,84h8.7l18.2,49.3h-8.5V133.2z M218.2,112.6l-4.6-13.3
			c-0.3-0.9-0.8-2.3-1.4-4.2c-0.6-1.9-1-3.3-1.2-4.2c-0.6,2.7-1.5,5.7-2.6,9l-4.4,12.7H218.2z"/>
		<path class="st0" d="M243.7,133.3h-8V84h27.8v6.8h-19.8v15.4h18.6v6.8h-18.6L243.7,133.3L243.7,133.3z"/>
		<path class="st0" d="M271.4,133.3V84h8.1v49.3H271.4z"/>
		<path class="st0" d="M318.4,119.6c0,4.3-1.5,7.6-4.6,10c-3.1,2.4-7.3,3.6-12.7,3.6c-5.4,0-9.9-0.8-13.3-2.5v-7.4
			c2.2,1,4.5,1.8,7,2.4s4.7,0.9,6.9,0.9c3.1,0,5.4-0.6,6.9-1.8c1.5-1.2,2.2-2.8,2.2-4.8c0-1.8-0.7-3.3-2-4.6
			c-1.4-1.2-4.2-2.7-8.4-4.4c-4.4-1.8-7.4-3.8-9.2-6.1c-1.8-2.3-2.7-5-2.7-8.2c0-4,1.4-7.1,4.3-9.4c2.8-2.3,6.7-3.4,11.4-3.4
			c4.6,0,9.2,1,13.7,3l-2.5,6.4c-4.3-1.8-8.1-2.7-11.4-2.7c-2.5,0-4.5,0.6-5.8,1.7s-2,2.6-2,4.4c0,1.2,0.3,2.3,0.8,3.2
			c0.5,0.9,1.4,1.7,2.6,2.5s3.4,1.8,6.5,3.1c3.5,1.5,6.1,2.8,7.7,4.1c1.6,1.3,2.8,2.7,3.6,4.3C318,115.5,318.4,117.4,318.4,119.6z"
			/>
		<path class="st0" d="M354.6,133.3h-27.9V84h27.9v6.8h-19.8v13.4h18.6v6.7h-18.6v15.5h19.8V133.3z"/>
	</g>
	<g>
		<path class="st0" d="M157.4,42.8h9.2c4.3,0,7.4,0.6,9.3,1.9c1.9,1.2,2.9,3.2,2.9,5.9c0,1.8-0.5,3.3-1.4,4.5s-2.3,2-4,2.3v0.2
			c2.2,0.4,3.8,1.2,4.8,2.4s1.5,2.9,1.5,4.9c0,2.8-1,5-2.9,6.6c-2,1.6-4.7,2.4-8.1,2.4h-11.2V42.8H157.4z M162.5,55.6h4.9
			c2.1,0,3.7-0.3,4.7-1s1.5-1.8,1.5-3.4c0-1.5-0.5-2.5-1.6-3.2s-2.7-1-5-1h-4.4L162.5,55.6L162.5,55.6z M162.5,59.8v9.9h5.4
			c2.1,0,3.7-0.4,4.8-1.2c1.1-0.8,1.6-2.1,1.6-3.9c0-1.6-0.6-2.8-1.7-3.6c-1.1-0.8-2.8-1.2-5-1.2H162.5z"/>
		<path class="st0" d="M200,73.9l-1-3.3h-0.2c-1.1,1.4-2.3,2.4-3.4,2.9c-1.2,0.5-2.6,0.8-4.4,0.8c-2.3,0-4.1-0.6-5.4-1.9
			c-1.3-1.2-1.9-3-1.9-5.3c0-2.4,0.9-4.3,2.7-5.5s4.6-1.9,8.2-2l4.1-0.1v-1.3c0-1.5-0.4-2.6-1.1-3.4c-0.7-0.7-1.8-1.1-3.3-1.1
			c-1.2,0-2.4,0.2-3.5,0.5c-1.1,0.4-2.2,0.8-3.2,1.3L186,52c1.3-0.7,2.7-1.2,4.2-1.5s3-0.5,4.3-0.5c3,0,5.3,0.7,6.8,2
			s2.3,3.4,2.3,6.2v15.9H200V73.9z M192.5,70.5c1.8,0,3.3-0.5,4.4-1.5c1.1-1,1.7-2.4,1.7-4.3v-2l-3,0.1c-2.4,0.1-4.1,0.5-5.1,1.2
			c-1.1,0.7-1.6,1.8-1.6,3.2c0,1.1,0.3,1.9,0.9,2.4C190.4,70.2,191.3,70.5,192.5,70.5z"/>
		<path class="st0" d="M230.9,73.9h-5V59.4c0-1.8-0.4-3.2-1.1-4.1c-0.7-0.9-1.9-1.3-3.5-1.3c-2.1,0-3.7,0.6-4.6,1.9
			c-1,1.3-1.5,3.3-1.5,6.3v11.7h-5V50.4h3.9l0.7,3.1h0.3c0.7-1.1,1.7-2,3-2.6s2.8-0.9,4.3-0.9c5.7,0,8.5,2.9,8.5,8.6L230.9,73.9
			L230.9,73.9z"/>
		<path class="st0" d="M246.9,74.3c-3.6,0-6.3-1-8.1-3.1c-1.9-2.1-2.8-5.1-2.8-9c0-4,1-7,2.9-9.1s4.7-3.2,8.4-3.2
			c2.5,0,4.7,0.5,6.7,1.4l-1.5,4c-2.1-0.8-3.9-1.2-5.2-1.2c-4.1,0-6.1,2.7-6.1,8.1c0,2.6,0.5,4.6,1.5,6c1,1.3,2.5,2,4.5,2
			c2.2,0,4.3-0.6,6.3-1.7v4.4c-0.9,0.5-1.9,0.9-2.9,1.1C249.6,74.2,248.3,74.3,246.9,74.3z"/>
		<path class="st0" d="M279.4,62.1c0,3.8-1,6.9-3,9c-2,2.2-4.7,3.2-8.2,3.2c-2.2,0-4.1-0.5-5.8-1.5c-1.7-1-3-2.4-3.9-4.3
			s-1.4-4-1.4-6.5c0-3.8,1-6.8,2.9-8.9c2-2.1,4.7-3.2,8.3-3.2c3.4,0,6.1,1.1,8.1,3.3C278.4,55.4,279.4,58.4,279.4,62.1z M262.3,62.1
			c0,5.4,2,8.2,6,8.2s6-2.7,6-8.2c0-5.4-2-8.1-6-8.1c-2.1,0-3.6,0.7-4.6,2.1C262.8,57.5,262.3,59.5,262.3,62.1z"/>
	</g>
</g>
</svg>
